<mxfile host="app.diagrams.net" agent="Mozilla/5.0 (Windows NT 10.0; Win64; x64) AppleWebKit/537.36 (KHTML, like Gecko) Chrome/135.0.0.0 Safari/537.36" version="26.2.14">
  <diagram name="Page-1" id="4yggIQcKxvrVsypNsLSX">
    <mxGraphModel dx="1603" dy="1965" grid="1" gridSize="10" guides="1" tooltips="1" connect="1" arrows="1" fold="1" page="1" pageScale="1" pageWidth="850" pageHeight="1100" math="0" shadow="0">
      <root>
        <mxCell id="0" />
        <mxCell id="1" parent="0" />
        <mxCell id="tGEerQQiNTwNRrY25dtl-1" value="" style="rounded=1;whiteSpace=wrap;html=1;glass=0;strokeColor=default;dashed=1;" vertex="1" parent="1">
          <mxGeometry x="1032" y="-47" width="439" height="490.5" as="geometry" />
        </mxCell>
        <mxCell id="Zfu0p61a3QtCPV8uUNYl-71" value="Android Environment" style="verticalAlign=top;align=left;spacingTop=8;spacingLeft=2;spacingRight=12;shape=cube;size=10;direction=south;fontStyle=4;html=1;whiteSpace=wrap;" parent="1" vertex="1">
          <mxGeometry x="366" y="135" width="303" height="210" as="geometry" />
        </mxCell>
        <mxCell id="Zfu0p61a3QtCPV8uUNYl-66" value="" style="verticalAlign=top;align=left;spacingTop=8;spacingLeft=2;spacingRight=12;shape=cube;size=10;direction=south;fontStyle=4;html=1;whiteSpace=wrap;container=0;" parent="1" vertex="1">
          <mxGeometry x="429" y="179" width="180" height="120" as="geometry">
            <mxRectangle x="240" y="35" width="50" height="40" as="alternateBounds" />
          </mxGeometry>
        </mxCell>
        <mxCell id="Zfu0p61a3QtCPV8uUNYl-3" value="End Users" style="rounded=0;whiteSpace=wrap;html=1;" parent="1" vertex="1">
          <mxGeometry x="157" y="210" width="120" height="60" as="geometry" />
        </mxCell>
        <mxCell id="Zfu0p61a3QtCPV8uUNYl-36" value="" style="group" parent="1" vertex="1" connectable="0">
          <mxGeometry x="1110" y="270" width="270" height="120" as="geometry" />
        </mxCell>
        <mxCell id="Zfu0p61a3QtCPV8uUNYl-31" value="" style="verticalAlign=top;align=left;spacingTop=8;spacingLeft=2;spacingRight=12;shape=cube;size=10;direction=south;fontStyle=4;html=1;whiteSpace=wrap;" parent="Zfu0p61a3QtCPV8uUNYl-36" vertex="1">
          <mxGeometry width="270" height="120" as="geometry" />
        </mxCell>
        <mxCell id="Zfu0p61a3QtCPV8uUNYl-32" value="Firebase&lt;div&gt;&lt;br&gt;&lt;/div&gt;" style="text;strokeColor=none;align=center;fillColor=none;html=1;verticalAlign=middle;whiteSpace=wrap;rounded=0;fontStyle=1" parent="Zfu0p61a3QtCPV8uUNYl-36" vertex="1">
          <mxGeometry x="74" y="13" width="120" height="30" as="geometry" />
        </mxCell>
        <mxCell id="Zfu0p61a3QtCPV8uUNYl-34" value="" style="group" parent="Zfu0p61a3QtCPV8uUNYl-36" vertex="1" connectable="0">
          <mxGeometry x="4" y="60" width="120" height="50" as="geometry" />
        </mxCell>
        <mxCell id="Zfu0p61a3QtCPV8uUNYl-27" value="" style="strokeWidth=2;html=1;shape=mxgraph.flowchart.database;whiteSpace=wrap;" parent="Zfu0p61a3QtCPV8uUNYl-34" vertex="1">
          <mxGeometry x="9" width="100" height="50" as="geometry" />
        </mxCell>
        <mxCell id="Zfu0p61a3QtCPV8uUNYl-28" value="&lt;span style=&quot;font-weight: normal;&quot;&gt;Firestore&lt;/span&gt;" style="text;strokeColor=none;align=center;fillColor=none;html=1;verticalAlign=middle;whiteSpace=wrap;rounded=0;fontStyle=1" parent="Zfu0p61a3QtCPV8uUNYl-34" vertex="1">
          <mxGeometry y="15" width="120" height="30" as="geometry" />
        </mxCell>
        <mxCell id="Zfu0p61a3QtCPV8uUNYl-35" value="" style="group" parent="Zfu0p61a3QtCPV8uUNYl-36" vertex="1" connectable="0">
          <mxGeometry x="134" y="60" width="120" height="50" as="geometry" />
        </mxCell>
        <mxCell id="Zfu0p61a3QtCPV8uUNYl-29" value="" style="strokeWidth=2;html=1;shape=mxgraph.flowchart.database;whiteSpace=wrap;" parent="Zfu0p61a3QtCPV8uUNYl-35" vertex="1">
          <mxGeometry x="10" width="100" height="50" as="geometry" />
        </mxCell>
        <mxCell id="Zfu0p61a3QtCPV8uUNYl-30" value="&lt;span style=&quot;font-weight: 400;&quot;&gt;Authentication&lt;/span&gt;" style="text;strokeColor=none;align=center;fillColor=none;html=1;verticalAlign=middle;whiteSpace=wrap;rounded=0;fontStyle=1" parent="Zfu0p61a3QtCPV8uUNYl-35" vertex="1">
          <mxGeometry y="15" width="120" height="30" as="geometry" />
        </mxCell>
        <mxCell id="Zfu0p61a3QtCPV8uUNYl-38" value="" style="group" parent="1" vertex="1" connectable="0">
          <mxGeometry x="820" y="163" width="190" height="120" as="geometry" />
        </mxCell>
        <mxCell id="Zfu0p61a3QtCPV8uUNYl-14" value="" style="verticalAlign=top;align=left;spacingTop=8;spacingLeft=2;spacingRight=12;shape=cube;size=10;direction=south;fontStyle=4;html=1;whiteSpace=wrap;" parent="Zfu0p61a3QtCPV8uUNYl-38" vertex="1">
          <mxGeometry width="190" height="120" as="geometry" />
        </mxCell>
        <mxCell id="Zfu0p61a3QtCPV8uUNYl-15" value="API Gateway" style="text;strokeColor=none;align=center;fillColor=none;html=1;verticalAlign=middle;whiteSpace=wrap;rounded=0;fontStyle=1" parent="Zfu0p61a3QtCPV8uUNYl-38" vertex="1">
          <mxGeometry x="35" y="13" width="120" height="30" as="geometry" />
        </mxCell>
        <mxCell id="Zfu0p61a3QtCPV8uUNYl-16" value="REST Endpoints" style="html=1;dropTarget=0;whiteSpace=wrap;" parent="Zfu0p61a3QtCPV8uUNYl-38" vertex="1">
          <mxGeometry x="16" y="43" width="150" height="63.5" as="geometry" />
        </mxCell>
        <mxCell id="Zfu0p61a3QtCPV8uUNYl-17" value="" style="shape=module;jettyWidth=8;jettyHeight=4;" parent="Zfu0p61a3QtCPV8uUNYl-16" vertex="1">
          <mxGeometry x="1" width="20" height="20" relative="1" as="geometry">
            <mxPoint x="-27" y="7" as="offset" />
          </mxGeometry>
        </mxCell>
        <mxCell id="Zfu0p61a3QtCPV8uUNYl-40" style="edgeStyle=orthogonalEdgeStyle;rounded=0;orthogonalLoop=1;jettySize=auto;html=1;entryX=0;entryY=0;entryDx=65;entryDy=190;entryPerimeter=0;" parent="1" edge="1">
          <mxGeometry relative="1" as="geometry">
            <mxPoint x="670.5" y="233.5" as="sourcePoint" />
            <mxPoint x="820" y="232" as="targetPoint" />
            <Array as="points">
              <mxPoint x="671" y="232" />
            </Array>
          </mxGeometry>
        </mxCell>
        <mxCell id="Zfu0p61a3QtCPV8uUNYl-41" style="edgeStyle=orthogonalEdgeStyle;rounded=0;orthogonalLoop=1;jettySize=auto;html=1;entryX=0;entryY=0;entryDx=105;entryDy=280;entryPerimeter=0;" parent="1" source="Zfu0p61a3QtCPV8uUNYl-14" target="Zfu0p61a3QtCPV8uUNYl-18" edge="1">
          <mxGeometry relative="1" as="geometry">
            <Array as="points">
              <mxPoint x="1060" y="230" />
              <mxPoint x="1060" y="115" />
            </Array>
          </mxGeometry>
        </mxCell>
        <mxCell id="Zfu0p61a3QtCPV8uUNYl-44" value="" style="edgeStyle=none;orthogonalLoop=1;jettySize=auto;html=1;rounded=0;entryX=0.591;entryY=1.006;entryDx=0;entryDy=0;entryPerimeter=0;" parent="1" target="Zfu0p61a3QtCPV8uUNYl-31" edge="1">
          <mxGeometry width="80" relative="1" as="geometry">
            <mxPoint x="1060" y="230" as="sourcePoint" />
            <mxPoint x="1100" y="340" as="targetPoint" />
            <Array as="points">
              <mxPoint x="1060" y="340" />
            </Array>
          </mxGeometry>
        </mxCell>
        <mxCell id="Zfu0p61a3QtCPV8uUNYl-45" value="CRUD" style="text;strokeColor=none;align=center;fillColor=none;html=1;verticalAlign=middle;whiteSpace=wrap;rounded=0;fontSize=11;" parent="1" vertex="1">
          <mxGeometry x="1052" y="318" width="60" height="30" as="geometry" />
        </mxCell>
        <mxCell id="Zfu0p61a3QtCPV8uUNYl-60" value="Mobile App" style="text;strokeColor=none;align=center;fillColor=none;html=1;verticalAlign=middle;whiteSpace=wrap;rounded=0;fontStyle=1" parent="1" vertex="1">
          <mxGeometry x="457" y="184" width="120" height="30" as="geometry" />
        </mxCell>
        <mxCell id="Zfu0p61a3QtCPV8uUNYl-46" value="" style="group" parent="1" vertex="1" connectable="0">
          <mxGeometry x="435" y="215" width="170" height="100" as="geometry" />
        </mxCell>
        <mxCell id="Zfu0p61a3QtCPV8uUNYl-10" value="" style="html=1;dropTarget=0;whiteSpace=wrap;" parent="Zfu0p61a3QtCPV8uUNYl-46" vertex="1">
          <mxGeometry x="6.9" y="9.52" width="143.1" height="60.48" as="geometry" />
        </mxCell>
        <mxCell id="Zfu0p61a3QtCPV8uUNYl-11" value="" style="shape=module;jettyWidth=8;jettyHeight=4;" parent="Zfu0p61a3QtCPV8uUNYl-10" vertex="1">
          <mxGeometry x="1" width="20" height="20" relative="1" as="geometry">
            <mxPoint x="-27" y="7" as="offset" />
          </mxGeometry>
        </mxCell>
        <mxCell id="Zfu0p61a3QtCPV8uUNYl-12" value="Study Sphere&amp;nbsp;" style="text;strokeColor=none;align=center;fillColor=none;html=1;verticalAlign=middle;whiteSpace=wrap;rounded=0;fontStyle=1;fontSize=13;" parent="Zfu0p61a3QtCPV8uUNYl-46" vertex="1">
          <mxGeometry x="22.782608695652172" y="26.809523809523807" width="108.40579710144928" height="28.57142857142857" as="geometry" />
        </mxCell>
        <mxCell id="Zfu0p61a3QtCPV8uUNYl-68" style="edgeStyle=orthogonalEdgeStyle;rounded=0;orthogonalLoop=1;jettySize=auto;html=1;entryX=-0.003;entryY=0.549;entryDx=0;entryDy=0;entryPerimeter=0;" parent="1" edge="1">
          <mxGeometry relative="1" as="geometry">
            <mxPoint x="278" y="238.73333333333323" as="sourcePoint" />
            <mxPoint x="365.1769999999999" y="238.82000000000005" as="targetPoint" />
            <Array as="points">
              <mxPoint x="322" y="239" />
            </Array>
          </mxGeometry>
        </mxCell>
        <mxCell id="Zfu0p61a3QtCPV8uUNYl-69" value="Uses" style="text;strokeColor=none;align=center;fillColor=none;html=1;verticalAlign=middle;whiteSpace=wrap;rounded=0;fontStyle=0" parent="1" vertex="1">
          <mxGeometry x="290" y="214" width="60" height="30" as="geometry" />
        </mxCell>
        <mxCell id="Zfu0p61a3QtCPV8uUNYl-70" value="Https" style="text;strokeColor=none;align=center;fillColor=none;html=1;verticalAlign=middle;whiteSpace=wrap;rounded=0;" parent="1" vertex="1">
          <mxGeometry x="715" y="207" width="60" height="30" as="geometry" />
        </mxCell>
        <mxCell id="Zfu0p61a3QtCPV8uUNYl-37" value="" style="group" parent="1" vertex="1" connectable="0">
          <mxGeometry x="1110" y="10" width="410" height="450" as="geometry" />
        </mxCell>
        <mxCell id="Zfu0p61a3QtCPV8uUNYl-18" value="" style="verticalAlign=top;align=left;spacingTop=8;spacingLeft=2;spacingRight=12;shape=cube;size=10;direction=south;fontStyle=4;html=1;whiteSpace=wrap;" parent="Zfu0p61a3QtCPV8uUNYl-37" vertex="1">
          <mxGeometry width="280" height="200" as="geometry" />
        </mxCell>
        <mxCell id="Zfu0p61a3QtCPV8uUNYl-19" value="AI Services" style="text;strokeColor=none;align=center;fillColor=none;html=1;verticalAlign=middle;whiteSpace=wrap;rounded=0;fontStyle=1" parent="Zfu0p61a3QtCPV8uUNYl-37" vertex="1">
          <mxGeometry x="70" y="10" width="120" height="30" as="geometry" />
        </mxCell>
        <mxCell id="Zfu0p61a3QtCPV8uUNYl-22" value="&lt;b&gt;Smart Digest&lt;/b&gt;" style="shape=module;align=center;spacingLeft=20;align=center;verticalAlign=top;whiteSpace=wrap;html=1;" parent="Zfu0p61a3QtCPV8uUNYl-37" vertex="1">
          <mxGeometry x="6" y="60" width="114" height="50" as="geometry" />
        </mxCell>
        <mxCell id="Zfu0p61a3QtCPV8uUNYl-24" value="&lt;b&gt;Ask Edu&lt;/b&gt;" style="shape=module;align=center;spacingLeft=20;align=center;verticalAlign=top;whiteSpace=wrap;html=1;" parent="Zfu0p61a3QtCPV8uUNYl-37" vertex="1">
          <mxGeometry x="72.5" y="132.25" width="115" height="51.5" as="geometry" />
        </mxCell>
        <mxCell id="Zfu0p61a3QtCPV8uUNYl-26" value="&lt;b&gt;Auto Quiz&lt;/b&gt;" style="shape=module;align=center;spacingLeft=20;align=center;verticalAlign=top;whiteSpace=wrap;html=1;" parent="Zfu0p61a3QtCPV8uUNYl-37" vertex="1">
          <mxGeometry x="144" y="63" width="114" height="50" as="geometry" />
        </mxCell>
        <mxCell id="Zfu0p61a3QtCPV8uUNYl-73" value="Backend Services" style="text;strokeColor=none;align=center;fillColor=none;html=1;verticalAlign=middle;whiteSpace=wrap;rounded=0;fontSize=14;fontStyle=1" parent="1" vertex="1">
          <mxGeometry x="1170" y="-40" width="140" height="30" as="geometry" />
        </mxCell>
        <mxCell id="tGEerQQiNTwNRrY25dtl-4" value="" style="swimlane;startSize=0;" vertex="1" parent="1">
          <mxGeometry x="111" y="-79" width="1500" height="575" as="geometry" />
        </mxCell>
      </root>
    </mxGraphModel>
  </diagram>
</mxfile>
